<svg width="115.4866729736328px" height="121.60000610351562px" xmlns="http://www.w3.org/2000/svg" viewBox="192.25666351318358 14.199996948242188 115.4866729736328 121.60000610351562" style="background: rgba(0, 0, 0, 0);" preserveAspectRatio="xMidYMid"><defs><filter id="editing-jagged" x="-100%" y="-100%" width="300%" height="300%"><feTurbulence result="turb" baseFrequency="0.1" numOctaves="1" seed="1"></feTurbulence><feDisplacementMap in="SourceGraphic" in2="turb" scale="10"></feDisplacementMap></filter></defs><g filter="url(#editing-jagged)"><g transform="translate(215.2178177833557, 97.46499824523926)"><path d="M6.21-31.17L6.21-31.17L6.21-31.17Q4.03-32.83 4.03-36.38L4.03-36.38L4.03-36.38Q4.03-39.94 6.37-41.79L6.37-41.79L6.37-41.79Q8.70-43.65 12.74-43.65L12.74-43.65L12.74-43.65Q15.30-43.65 21.38-42.75L21.38-42.75L25.73-42.11L25.73-42.11Q27.90-41.86 30.18-41.86L30.18-41.86L30.18-41.86Q32.45-41.86 33.98-42.82L33.98-42.82L33.98-42.82Q36.29-40.77 36.29-37.82L36.29-37.82L36.29-37.82Q36.29-34.88 33.66-32.77L33.66-32.77L33.66-32.77Q30.98-30.53 27.52-30.53L27.52-30.53L27.52-30.53Q25.86-30.53 23.17-30.98L23.17-30.98L23.17-30.98Q20.03-21.12 20.03-14.27L20.03-14.27L20.03-14.27Q20.03-7.42 23.49-3.84L23.49-3.84L23.49-3.84Q21.89-0.96 19.52 0.16L19.52 0.16L19.52 0.16Q17.15 1.28 13.60 1.28L13.60 1.28L13.60 1.28Q10.05 1.28 7.84-0.67L7.84-0.67L7.84-0.67Q5.63-2.62 5.63-6.66L5.63-6.66L5.63-6.66Q5.63-11.33 8.19-19.01L8.19-19.01L8.19-19.01Q10.75-26.62 14.59-32.45L14.59-32.45L14.59-32.45Q12.74-32.64 10.82-32.64L10.82-32.64L10.82-32.64Q6.85-32.64 6.21-31.17ZM39.36-31.17L39.36-31.17L39.36-31.17Q37.18-32.83 37.18-36.38L37.18-36.38L37.18-36.38Q37.18-39.94 39.52-41.79L39.52-41.79L39.52-41.79Q41.86-43.65 45.89-43.65L45.89-43.65L45.89-43.65Q48.45-43.65 54.53-42.75L54.53-42.75L58.88-42.11L58.88-42.11Q61.06-41.86 63.33-41.86L63.33-41.86L63.33-41.86Q65.60-41.86 67.14-42.82L67.14-42.82L67.14-42.82Q69.44-40.77 69.44-37.82L69.44-37.82L69.44-37.82Q69.44-34.88 66.82-32.77L66.82-32.77L66.82-32.77Q64.13-30.53 60.67-30.53L60.67-30.53L60.67-30.53Q59.01-30.53 56.32-30.98L56.32-30.98L56.32-30.98Q53.18-21.12 53.18-14.27L53.18-14.27L53.18-14.27Q53.18-7.42 56.64-3.84L56.64-3.84L56.64-3.84Q55.04-0.96 52.67 0.16L52.67 0.16L52.67 0.16Q50.30 1.28 46.75 1.28L46.75 1.28L46.75 1.28Q43.20 1.28 40.99-0.67L40.99-0.67L40.99-0.67Q38.78-2.62 38.78-6.66L38.78-6.66L38.78-6.66Q38.78-11.33 41.34-19.01L41.34-19.01L41.34-19.01Q43.90-26.62 47.74-32.45L47.74-32.45L47.74-32.45Q45.89-32.64 43.97-32.64L43.97-32.64L43.97-32.64Q40-32.64 39.36-31.17Z" fill="#444"></path></g></g><style>text {
  font-size: 64px;
  font-family: Arial Black;
  dominant-baseline: central;
  text-anchor: middle;
}</style></svg>